<svg width="176" height="32" viewBox="0 0 176 32" xmlns="http://www.w3.org/2000/svg"><g id="svgGroup" stroke-linecap="round" fill-rule="evenodd" font-size="9pt" stroke="#000" stroke-width="0.25mm" fill="#000" style="stroke:#000;stroke-width:0.25mm;fill:#000">
    
    <path d="M 47.852 24.049 L 43.354 9.365 L 41.822 24.049 L 38.473 24.049 L 41.822 4.361 L 46.785 4.361 L 51.393 19.387 L 56.055 4.361 L 61.018 4.361 L 63.807 24.049 L 58.283 24.049 L 56.656 9.748 L 52.814 24.049 L 47.852 24.049 Z" id="3" fill="1C2434"/><path d="M 83.598 17.81 A 8.206 8.206 0 0 0 83.768 16.119 A 8.85 8.85 0 0 0 83.762 15.817 A 7.821 7.821 0 0 0 83.439 13.815 A 8.075 8.075 0 0 0 82.53 11.813 A 7.787 7.787 0 0 0 81.129 10.165 A 8.696 8.696 0 0 0 79.331 8.928 A 9.415 9.415 0 0 0 77.239 8.148 A 9.574 9.574 0 0 0 74.949 7.875 A 9.489 9.489 0 0 0 72.666 8.148 A 9.444 9.444 0 0 0 70.581 8.928 A 8.696 8.696 0 0 0 68.783 10.165 A 7.787 7.787 0 0 0 67.382 11.813 Q 66.801 12.729 66.473 13.815 A 7.396 7.396 0 0 0 66.361 14.228 A 8.083 8.083 0 0 0 66.145 16.119 A 8.85 8.85 0 0 0 66.15 16.421 A 7.821 7.821 0 0 0 66.473 18.423 A 8.075 8.075 0 0 0 67.382 20.426 A 7.787 7.787 0 0 0 68.783 22.073 A 8.696 8.696 0 0 0 70.581 23.311 A 9.444 9.444 0 0 0 72.666 24.09 A 9.489 9.489 0 0 0 74.949 24.363 A 9.574 9.574 0 0 0 77.239 24.09 A 9.415 9.415 0 0 0 79.331 23.311 A 8.696 8.696 0 0 0 81.129 22.073 A 7.787 7.787 0 0 0 82.53 20.426 Q 83.111 19.51 83.439 18.43 A 7.28 7.28 0 0 0 83.598 17.81 Z M 79.064 16.119 A 12.889 12.889 0 0 0 79.029 15.181 A 15.284 15.284 0 0 0 78.989 14.731 A 10.061 10.061 0 0 0 78.736 13.296 A 7.364 7.364 0 0 0 78.251 11.942 Q 77.943 11.293 77.492 10.808 Q 77.041 10.322 76.412 10.028 A 3.06 3.06 0 0 0 75.593 9.783 A 4.097 4.097 0 0 0 74.949 9.734 A 3.578 3.578 0 0 0 74.201 9.81 A 2.852 2.852 0 0 0 73.541 10.035 A 3.573 3.573 0 0 0 72.468 10.835 A 4.504 4.504 0 0 0 71.761 11.869 A 5.101 5.101 0 0 0 71.702 11.99 Q 71.395 12.647 71.203 13.351 Q 71.012 14.055 70.93 14.772 A 12.903 12.903 0 0 0 70.86 15.614 A 10.473 10.473 0 0 0 70.848 16.119 Q 70.848 16.748 70.93 17.466 Q 71.012 18.184 71.203 18.895 A 8.073 8.073 0 0 0 71.702 20.255 A 4.628 4.628 0 0 0 72.383 21.308 A 4.327 4.327 0 0 0 72.468 21.403 Q 72.926 21.902 73.541 22.203 A 2.942 2.942 0 0 0 74.448 22.472 A 3.763 3.763 0 0 0 74.949 22.504 Q 75.77 22.504 76.398 22.21 Q 77.027 21.916 77.485 21.424 A 4.368 4.368 0 0 0 78.235 20.309 A 4.903 4.903 0 0 0 78.244 20.289 Q 78.545 19.647 78.729 18.936 Q 78.914 18.225 78.989 17.5 A 14.071 14.071 0 0 0 79.057 16.536 A 12.029 12.029 0 0 0 79.064 16.119 Z" id="4" fill="1C2434"/><path d="M 105.834 27.412 L 104.098 26.469 A 10.365 10.365 0 0 0 104.544 25.562 A 13.02 13.02 0 0 0 104.822 24.869 Q 105.15 23.98 105.424 22.996 Q 105.697 22.012 105.902 20.973 Q 106.107 19.934 106.251 18.901 A 30.079 30.079 0 0 0 106.445 17.142 A 27.132 27.132 0 0 0 106.463 16.898 A 28.107 28.107 0 0 0 106.521 15.747 A 22.827 22.827 0 0 0 106.531 15.08 Q 106.531 14.602 106.504 14.041 A 10.387 10.387 0 0 0 106.388 12.92 Q 106.299 12.359 106.121 11.847 A 3.312 3.312 0 0 0 105.738 11.073 A 3.051 3.051 0 0 0 105.636 10.931 A 2.274 2.274 0 0 0 104.87 10.288 A 2.033 2.033 0 0 0 104.305 10.096 Q 104.063 10.05 103.787 10.049 A 3.426 3.426 0 0 0 103.77 10.049 A 1.967 1.967 0 0 0 103.22 10.122 A 1.604 1.604 0 0 0 102.696 10.384 A 2.819 2.819 0 0 0 102.103 10.998 A 3.392 3.392 0 0 0 101.937 11.252 A 4.677 4.677 0 0 0 101.567 12.05 A 5.608 5.608 0 0 0 101.438 12.455 A 10.713 10.713 0 0 0 101.158 13.802 A 16.071 16.071 0 0 0 101.056 14.703 A 13.75 13.75 0 0 0 101.028 15.094 A 26.911 26.911 0 0 0 101.007 15.528 Q 100.994 15.868 100.994 16.133 L 100.994 24.049 L 96.387 24.049 L 96.387 16.693 Q 96.387 16.215 96.4 15.538 A 15.044 15.044 0 0 0 96.403 15.234 Q 96.403 14.764 96.375 14.266 A 18.82 18.82 0 0 0 96.366 14.123 A 13.332 13.332 0 0 0 96.188 12.653 A 5.459 5.459 0 0 0 95.995 11.881 A 4.353 4.353 0 0 0 95.778 11.348 A 2.623 2.623 0 0 0 95.246 10.606 A 2.465 2.465 0 0 0 95.02 10.411 A 1.748 1.748 0 0 0 94.295 10.094 A 2.445 2.445 0 0 0 93.816 10.049 A 1.832 1.832 0 0 0 93.316 10.114 A 1.454 1.454 0 0 0 92.784 10.391 A 2.63 2.63 0 0 0 92.255 10.984 A 3.23 3.23 0 0 0 92.087 11.272 Q 91.807 11.813 91.649 12.489 A 11.674 11.674 0 0 0 91.417 13.843 A 15.594 15.594 0 0 0 91.347 14.662 A 13.169 13.169 0 0 0 91.328 15.128 A 72.67 72.67 0 0 0 91.322 15.419 Q 91.315 15.808 91.314 16.093 A 23.863 23.863 0 0 0 91.314 16.133 L 91.314 24.049 L 86.68 24.049 L 86.68 8.258 L 88.457 8.258 L 90.152 11.936 A 7.573 7.573 0 0 1 90.755 10.47 A 5.464 5.464 0 0 1 91.964 8.948 Q 93.171 7.901 95.152 7.876 A 7.726 7.726 0 0 1 95.252 7.875 A 7.383 7.383 0 0 1 96.548 7.983 Q 97.554 8.162 98.314 8.641 A 4.242 4.242 0 0 1 99.488 9.762 Q 99.912 10.347 100.229 11.129 A 8.693 8.693 0 0 1 100.844 10.126 A 7.562 7.562 0 0 1 101.11 9.775 A 5.482 5.482 0 0 1 102.117 8.804 A 5.132 5.132 0 0 1 102.19 8.75 Q 102.785 8.326 103.51 8.101 A 4.966 4.966 0 0 1 104.5 7.904 A 6.202 6.202 0 0 1 105.109 7.875 Q 106.543 7.875 107.604 8.291 A 4.817 4.817 0 0 1 107.864 8.401 A 5.077 5.077 0 0 1 109.316 9.392 A 4.753 4.753 0 0 1 109.73 9.857 A 5.691 5.691 0 0 1 110.594 11.446 A 6.932 6.932 0 0 1 110.783 12.065 A 10.493 10.493 0 0 1 111.079 13.923 A 12.68 12.68 0 0 1 111.111 14.834 A 15.329 15.329 0 0 1 110.905 17.297 A 18.015 18.015 0 0 1 110.729 18.225 A 20.306 20.306 0 0 1 109.655 21.663 A 19.172 19.172 0 0 1 107.994 24.828 A 14.109 14.109 0 0 1 106.556 26.69 A 12.282 12.282 0 0 1 105.834 27.412 Z" id="5" fill="1C2434"/><path d="M 126.943 19.455 L 128.939 20.193 A 5.731 5.731 0 0 1 127.702 22.06 A 7.132 7.132 0 0 1 125.925 23.358 A 8.597 8.597 0 0 1 123.819 24.117 A 10.214 10.214 0 0 1 121.611 24.363 A 9.382 9.382 0 0 1 119.31 24.089 A 8.283 8.283 0 0 1 118.275 23.755 A 7.885 7.885 0 0 1 115.92 22.319 A 7.507 7.507 0 0 1 115.637 22.053 A 7.831 7.831 0 0 1 113.92 19.489 A 8.912 8.912 0 0 1 113.9 19.441 A 8.345 8.345 0 0 1 113.295 16.813 A 9.902 9.902 0 0 1 113.271 16.119 A 9.044 9.044 0 0 1 113.542 13.874 A 7.943 7.943 0 0 1 113.9 12.797 A 7.879 7.879 0 0 1 115.492 10.333 A 7.579 7.579 0 0 1 115.637 10.186 A 7.784 7.784 0 0 1 118.18 8.522 A 8.884 8.884 0 0 1 118.275 8.483 Q 119.807 7.875 121.611 7.875 A 13.429 13.429 0 0 1 123.374 7.994 A 14.665 14.665 0 0 1 123.402 7.998 Q 124.318 8.121 125.18 8.388 A 8.598 8.598 0 0 1 126.807 9.078 Q 127.572 9.502 128.14 10.124 A 4.827 4.827 0 0 1 129.042 11.566 A 4.431 4.431 0 0 1 129.322 12.622 A 5.811 5.811 0 0 1 129.377 13.439 A 5.127 5.127 0 0 1 129.298 14.357 A 3.968 3.968 0 0 1 129.063 15.169 Q 128.748 15.928 128.208 16.502 A 5.143 5.143 0 0 1 126.957 17.473 A 8.052 8.052 0 0 1 125.439 18.122 A 9.625 9.625 0 0 1 123.778 18.484 Q 122.924 18.594 122.117 18.594 A 14.195 14.195 0 0 1 120.094 18.45 Q 119.096 18.307 118.125 17.992 A 8.156 8.156 0 0 0 118.604 19.708 A 4.88 4.88 0 0 0 119.265 20.874 A 4.486 4.486 0 0 0 119.479 21.13 Q 120.025 21.738 120.825 22.094 Q 121.602 22.439 122.655 22.449 A 6.65 6.65 0 0 0 122.719 22.449 Q 123.443 22.449 124.1 22.23 Q 124.756 22.012 125.303 21.615 A 4.61 4.61 0 0 0 126.267 20.672 A 4.939 4.939 0 0 0 126.943 19.455 Z M 117.988 16.557 A 18.362 18.362 0 0 0 119.684 16.857 Q 120.531 16.967 121.393 16.967 A 8.379 8.379 0 0 0 122.444 16.903 A 6.885 6.885 0 0 0 123.067 16.796 A 3.986 3.986 0 0 0 123.872 16.53 A 3.293 3.293 0 0 0 124.407 16.222 A 2.766 2.766 0 0 0 125.239 15.272 A 3.269 3.269 0 0 0 125.303 15.148 A 2.996 2.996 0 0 0 125.538 14.448 Q 125.608 14.12 125.625 13.74 A 5.687 5.687 0 0 0 125.631 13.48 A 5.176 5.176 0 0 0 125.558 12.594 A 4.231 4.231 0 0 0 125.412 12.004 A 3.316 3.316 0 0 0 125.034 11.207 A 2.933 2.933 0 0 0 124.763 10.855 A 2.939 2.939 0 0 0 123.762 10.136 A 3.39 3.39 0 0 0 123.703 10.11 A 3.268 3.268 0 0 0 122.931 9.895 A 4.46 4.46 0 0 0 122.24 9.844 A 3.639 3.639 0 0 0 121.435 9.93 A 2.998 2.998 0 0 0 120.839 10.131 Q 120.217 10.418 119.745 10.903 A 4.703 4.703 0 0 0 119.024 11.873 A 5.313 5.313 0 0 0 118.938 12.031 Q 118.604 12.674 118.385 13.371 A 8.474 8.474 0 0 0 118.07 14.779 A 10.843 10.843 0 0 0 117.988 15.636 A 8.898 8.898 0 0 0 117.975 16.119 L 117.975 16.338 A 1.762 1.762 0 0 0 117.988 16.557 Z" id="6" fill="1C2434"/><path d="M 143.131 27.412 L 141.395 26.469 A 12.113 12.113 0 0 0 141.797 25.648 A 15.328 15.328 0 0 0 142.092 24.938 Q 142.42 24.09 142.687 23.14 Q 142.953 22.189 143.165 21.178 Q 143.377 20.166 143.521 19.175 A 30.842 30.842 0 0 0 143.719 17.482 A 28.013 28.013 0 0 0 143.739 17.247 Q 143.814 16.311 143.814 15.504 A 15.786 15.786 0 0 0 143.798 14.808 A 19.283 19.283 0 0 0 143.773 14.362 Q 143.732 13.754 143.603 13.146 Q 143.473 12.537 143.254 11.977 A 3.505 3.505 0 0 0 142.845 11.213 A 3.174 3.174 0 0 0 142.673 10.992 A 2.806 2.806 0 0 0 141.798 10.309 A 2.347 2.347 0 0 0 141.134 10.093 A 3.196 3.196 0 0 0 140.588 10.049 A 2.591 2.591 0 0 0 139.871 10.145 A 2.221 2.221 0 0 0 139.371 10.356 Q 138.838 10.664 138.428 11.163 A 5.027 5.027 0 0 0 137.858 12.03 A 5.817 5.817 0 0 0 137.724 12.305 Q 137.43 12.947 137.245 13.624 Q 137.061 14.301 136.979 14.957 A 11.707 11.707 0 0 0 136.922 15.505 Q 136.901 15.778 136.897 16.022 A 6.86 6.86 0 0 0 136.896 16.133 L 136.896 24.049 L 132.262 24.049 L 132.262 8.258 L 134.039 8.258 L 136.158 11.936 Q 136.541 11.02 137.115 10.268 A 6.421 6.421 0 0 1 138.414 8.982 Q 139.139 8.449 140.021 8.162 Q 140.902 7.875 141.928 7.875 Q 143.54 7.875 144.742 8.39 A 5.38 5.38 0 0 1 144.785 8.408 A 5.632 5.632 0 0 1 146.408 9.469 A 5.283 5.283 0 0 1 146.809 9.892 A 6.07 6.07 0 0 1 147.849 11.67 A 7.19 7.19 0 0 1 148.012 12.147 Q 148.408 13.453 148.408 14.998 A 14.557 14.557 0 0 1 148.207 17.368 A 17.183 17.183 0 0 1 148.019 18.334 A 20.385 20.385 0 0 1 146.932 21.738 Q 146.234 23.406 145.264 24.876 A 14.369 14.369 0 0 1 143.907 26.631 A 12.217 12.217 0 0 1 143.131 27.412 Z" id="7" fill="1C2434"/><path d="M 166.209 1.764 L 163.598 6.084 A 6.882 6.882 0 0 0 163.541 5.599 Q 163.503 5.351 163.446 5.075 A 12.526 12.526 0 0 0 163.406 4.888 Q 163.256 4.211 162.907 3.609 A 3.119 3.119 0 0 0 161.997 2.624 A 3.607 3.607 0 0 0 161.95 2.591 A 2.274 2.274 0 0 0 161.185 2.259 Q 160.874 2.185 160.511 2.175 A 4.135 4.135 0 0 0 160.398 2.174 A 4.021 4.021 0 0 0 159.776 2.219 Q 159.226 2.305 158.84 2.557 A 2.222 2.222 0 0 0 158.167 3.254 A 2.997 2.997 0 0 0 157.937 3.705 A 5.095 5.095 0 0 0 157.709 4.417 Q 157.577 4.949 157.514 5.605 A 21.978 21.978 0 0 0 157.439 6.669 Q 157.413 7.216 157.406 7.828 A 39.254 39.254 0 0 0 157.404 8.244 L 162.189 8.244 L 162.189 10.076 L 157.404 10.076 L 157.404 24.049 L 152.77 24.049 L 152.77 10.076 L 149.898 10.076 L 149.898 8.244 L 152.77 8.244 A 17.073 17.073 0 0 1 152.846 6.579 Q 152.958 5.437 153.234 4.512 A 7.272 7.272 0 0 1 153.797 3.132 A 5.617 5.617 0 0 1 154.643 1.948 A 5.46 5.46 0 0 1 156.58 0.632 A 6.579 6.579 0 0 1 157.015 0.472 Q 158.443 0 160.357 0 A 14.385 14.385 0 0 1 161.414 0.037 Q 161.93 0.075 162.386 0.152 A 8.755 8.755 0 0 1 162.415 0.157 A 11.33 11.33 0 0 1 163.26 0.335 A 8.267 8.267 0 0 1 164.028 0.567 A 8.401 8.401 0 0 1 164.69 0.836 A 6.316 6.316 0 0 1 165.266 1.135 A 10.761 10.761 0 0 1 165.768 1.449 A 8.208 8.208 0 0 1 166.209 1.764 Z" id="8" fill="1C2434"/><path d="M 176.039 8.258 L 179.238 8.258 L 173.496 22.148 A 60.107 60.107 0 0 1 171.302 26.858 A 50.927 50.927 0 0 1 168.684 31.336 L 166.879 30.242 A 83.14 83.14 0 0 1 167.202 29.667 Q 167.424 29.274 167.686 28.82 Q 168.15 28.014 168.602 27.152 A 34.308 34.308 0 0 0 169.436 25.45 A 14.391 14.391 0 0 0 169.736 24.742 Q 169.881 24.373 169.986 24.036 A 8.405 8.405 0 0 0 170.023 23.912 L 163.119 8.258 L 167.74 8.258 L 172.43 18.936 L 176.039 8.258 Z" id="9" fill="1C2434"/>

<path d="M0 8.42105C0 3.77023 3.77023 0 8.42105 0H23.5789C28.2298 0 32 3.77023 32 8.42105V23.5789C32 28.2298 28.2298 32 23.5789 32H8.42105C3.77023 32 0 28.2298 0 23.5789V8.42105Z" fill="#3C50E0"/>

<g filter="url(#filter0_d_506_10589)">
    <path d="M8.42139 8.42127C8.42139 7.49111 9.17543 6.73706 10.1056 6.73706V6.73706C11.0358 6.73706 11.7898 7.49111 11.7898 8.42127V23.5792C11.7898 24.5093 11.0358 25.2634 10.1056 25.2634V25.2634C9.17543 25.2634 8.42139 24.5093 8.42139 23.5792V8.42127Z" fill="white"/>
    </g>
    <g opacity="0.9" filter="url(#filter1_d_506_10589)">
    <path d="M14.7368 15.1576C14.7368 14.2274 15.4909 13.4734 16.421 13.4734V13.4734C17.3512 13.4734 18.1052 14.2274 18.1052 15.1576V23.5786C18.1052 24.5088 17.3512 25.2629 16.421 25.2629V25.2629C15.4909 25.2629 14.7368 24.5088 14.7368 23.5786V15.1576Z" fill="white"/>
    
    </g>
    <g opacity="0.7" filter="url(#filter2_d_506_10589)">
    <path d="M21.0522 10.9469C21.0522 10.0167 21.8063 9.2627 22.7365 9.2627V9.2627C23.6666 9.2627 24.4207 10.0167 24.4207 10.9469V23.5785C24.4207 24.5086 23.6666 25.2627 22.7365 25.2627V25.2627C21.8063 25.2627 21.0522 24.5086 21.0522 23.5785V10.9469Z" fill="white"/>
    </g>
    <defs>
    <filter id="filter0_d_506_10589" x="7.42139" y="6.23706" width="5.36865" height="20.5264" filterUnits="userSpaceOnUse" color-interpolation-filters="sRGB">
    <feFlood flood-opacity="0" result="BackgroundImageFix"/>
    <feColorMatrix in="SourceAlpha" type="matrix" values="0 0 0 0 0 0 0 0 0 0 0 0 0 0 0 0 0 0 127 0" result="hardAlpha"/>
    <feOffset dy="0.5"/>
    <feGaussianBlur stdDeviation="0.5"/>
    <feComposite in2="hardAlpha" operator="out"/>
    <feColorMatrix type="matrix" values="0 0 0 0 0 0 0 0 0 0 0 0 0 0 0 0 0 0 0.12 0"/>
    <feBlend mode="normal" in2="BackgroundImageFix" result="effect1_dropShadow_506_10589"/>
    <feBlend mode="normal" in="SourceGraphic" in2="effect1_dropShadow_506_10589" result="shape"/>
    </filter>
    <filter id="filter1_d_506_10589" x="13.7368" y="12.9734" width="5.36865" height="13.7896" filterUnits="userSpaceOnUse" color-interpolation-filters="sRGB">
    <feFlood flood-opacity="0" result="BackgroundImageFix"/>
    <feColorMatrix in="SourceAlpha" type="matrix" values="0 0 0 0 0 0 0 0 0 0 0 0 0 0 0 0 0 0 127 0" result="hardAlpha"/>
    <feOffset dy="0.5"/>
    <feGaussianBlur stdDeviation="0.5"/>
    <feComposite in2="hardAlpha" operator="out"/>
    <feColorMatrix type="matrix" values="0 0 0 0 0 0 0 0 0 0 0 0 0 0 0 0 0 0 0.12 0"/>
    <feBlend mode="normal" in2="BackgroundImageFix" result="effect1_dropShadow_506_10589"/>
    <feBlend mode="normal" in="SourceGraphic" in2="effect1_dropShadow_506_10589" result="shape"/>
    </filter>
    <filter id="filter2_d_506_10589" x="20.0522" y="8.7627" width="5.36865" height="18" filterUnits="userSpaceOnUse" color-interpolation-filters="sRGB">
    <feFlood flood-opacity="0" result="BackgroundImageFix"/>
    <feColorMatrix in="SourceAlpha" type="matrix" values="0 0 0 0 0 0 0 0 0 0 0 0 0 0 0 0 0 0 127 0" result="hardAlpha"/>
    <feOffset dy="0.5"/>
    <feGaussianBlur stdDeviation="0.5"/>
    <feComposite in2="hardAlpha" operator="out"/>
    <feColorMatrix type="matrix" values="0 0 0 0 0 0 0 0 0 0 0 0 0 0 0 0 0 0 0.12 0"/>
    <feBlend mode="normal" in2="BackgroundImageFix" result="effect1_dropShadow_506_10589"/>
    <feBlend mode="normal" in="SourceGraphic" in2="effect1_dropShadow_506_10589" result="shape"/>
    </filter>
    </defs>
 

</g></svg>